<svg xmlns="http://www.w3.org/2000/svg" viewBox="0 0 4000 4000"><defs><style>.cls-1{fill:#fff;}.cls-2,.cls-3,.cls-4,.cls-5{fill:#1e1d24;}.cls-2{opacity:0.8;}.cls-3{opacity:0.7;}.cls-4{opacity:0.6;}</style></defs><title>favicon</title><g id="Background"><path class="cls-1" d="M2000,3999.5a2014.71,2014.71,0,0,1-403-40.62,1988.58,1988.58,0,0,1-715-300.86A2005.33,2005.33,0,0,1,157.63,2778.3,1989.37,1989.37,0,0,1,41.12,2403a2019.14,2019.14,0,0,1,0-805.94A1988.58,1988.58,0,0,1,342,882.06,2005.33,2005.33,0,0,1,1221.7,157.63,1989.37,1989.37,0,0,1,1597,41.12a2019.14,2019.14,0,0,1,805.94,0,1988.58,1988.58,0,0,1,715,300.86,2005.33,2005.33,0,0,1,724.43,879.72A1989.37,1989.37,0,0,1,3958.88,1597a2019.14,2019.14,0,0,1,0,805.94,1988.58,1988.58,0,0,1-300.86,715,2005.33,2005.33,0,0,1-879.72,724.43A1989.37,1989.37,0,0,1,2403,3958.88,2014.71,2014.71,0,0,1,2000,3999.5Z"/><path d="M2000,1a2013.64,2013.64,0,0,1,402.87,40.61A1988,1988,0,0,1,3117.66,342.4a2004.88,2004.88,0,0,1,724.25,879.5,1989,1989,0,0,1,116.48,375.23,2018.63,2018.63,0,0,1,0,805.74,1988,1988,0,0,1-300.79,714.79,2004.88,2004.88,0,0,1-879.5,724.25,1989,1989,0,0,1-375.23,116.48,2018.63,2018.63,0,0,1-805.74,0A1988,1988,0,0,1,882.34,3657.6a2004.88,2004.88,0,0,1-724.25-879.5A1989.77,1989.77,0,0,1,41.61,2402.87a2018.63,2018.63,0,0,1,0-805.74A1988,1988,0,0,1,342.4,882.34a2004.88,2004.88,0,0,1,879.5-724.25A1989.77,1989.77,0,0,1,1597.13,41.61,2013.64,2013.64,0,0,1,2000,1m0-1C895.43,0,0,895.43,0,2000S895.43,4000,2000,4000s2000-895.43,2000-2000S3104.57,0,2000,0Z"/></g><g id="Mirror_copy_7" data-name="Mirror copy 7"><path class="cls-2" d="M3592.8,1276.36c-100.18-87.08-227-144.52-348.63-194.51-169.58-69.68-345.72-123.46-523.18-169a5691,5691,0,0,0-602.14-120.17c-193.81-28-389.57-46.51-585.49-48-157.91-1.2-320,6.51-473.23,47.53-103,27.57-210.91,73.38-267.68,168.9-64.31,108.25-73.16,246.09-72.68,368.87.7,177.25,27.91,354.3,64.07,527.45,41.87,200.54,98,398.13,164,592,65.12,191.49,140,380,227,562.6,72.61,152.3,153.21,302.91,253.25,439.17,37.7,51.35,78.5,101.1,125.42,144.35,27.2,25.08,56.87,43.54,93.24,52,83.31,19.34,172.78-8.44,249.12-40.77,113.55-48.08,218.05-117.12,316.72-190.39,123.61-91.79,239.6-193.75,350.61-300.31,122.73-117.81,239.45-241.89,350.77-370.51,111.56-128.9,217.82-262.5,317.21-401,90.31-125.87,175.41-255.91,249.92-391.81,59.79-109,114.66-223,148.91-342.88,22.89-80.17,40.93-172.71,14.16-254.27C3634.19,1325.21,3617.06,1297.45,3592.8,1276.36ZM2000,3067.12c-73.71,0-148.13-9.82-218.17-33.34-43.83-14.72-90-34.74-124.21-66.83-8.67-8.15-19.45-18.95-21.92-31.15-3.28-16.24,13-25.56,24-34.91,51.5-44,114.47-72.38,179.93-88.46,89.5-22,186.43-24.16,277.28-8.95,64.35,10.77,127.71,31.76,182.82,67.22a373.23,373.23,0,0,1,38.31,28.22c8,6.72,22.3,15.49,26,25.86,3.24,9.14-2.07,18.72-7.17,26.06-25.57,36.8-75.27,58.9-115.41,74.53C2164.92,3055.16,2081.78,3067.12,2000,3067.12ZM2582,2312c0,69.37,30.17,134,43.12,201.19,11.58,60.16,16.59,126.94-20.64,179.34-57.8,81.33-175.58,104.61-268.73,111.3-99.44,7.14-259.15-1.43-306.63-108.76-20-45.24-11.87-96.57,22.17-132.38,33.07-34.79,78.61-52.91,117.24-80.21,14.7-10.4,30-22.92,37-40,8.22-19.93,6.16-52.7-7.74-69.69-17.59-21.49-52.6-13.35-75-5.87-33.72,11.28-65,29-100.63,34.11-38.5,5.52-74.09-5.55-109.3-20-27.5-11.31-60.61-27.93-91.23-20.1-27.63,7.06-33.13,39.73-31.22,64.45,1.39,18,11.39,32.28,24.46,44.16,33.85,30.75,78.53,47.12,114.24,75.56,39.07,31.11,60.24,74.21,49.81,124.58-25.23,121.83-192.49,139-292.06,135.44-93.09-3.33-205.71-22.4-273.85-91.66-99.7-101.35-13.74-248.07,2.27-364.23,16.68-121-54.88-221.77-118.19-317.41-33.55-50.69-66-102.6-88-159.5C1184.84,1809.47,1176.37,1744,1180,1677c6-111.09,40.21-224.66,117-307.71,91.69-99.17,226.32-131.08,357.27-126.55,65.53,2.26,130.93,13.13,191.64,38.55,35.75,15,68,36.44,103.24,52.41,28.78,13.06,57.92,16.48,88,5.65,33.84-12.17,64.07-33.53,96.48-48.9,118.83-56.34,269.31-64.54,394.91-27.48,114,33.63,202.91,114.74,249.42,223.72s58.85,242.91,23.06,356.58c-36.66,116.47-120.19,206.59-176,313.06C2599.66,2204.59,2582,2257,2582,2312Z"/><path class="cls-3" d="M1530.17,409.25c-104.9,83.22-185.19,198.57-257.11,310C1172.72,874.8,1087,1039.75,1009.2,1207.55A5691.25,5691.25,0,0,0,780.76,1780c-62.68,185.65-116.43,375-153.08,567.57-29.46,154.82-51,315.7-36.65,473.45,9.68,106.69,38,217.83,124.06,288.59,97.29,80,230.43,112.72,351.75,134,173.89,30.52,352.13,35.78,528.29,31.63,202.41-4.77,404.52-23.67,604.86-52.65,198.47-28.7,395.79-67.36,589.64-118.89,162.06-43.07,323.84-94.22,475.46-166.59,56.85-27.13,112.69-57.48,163.67-94.65,33.75-24.61,62.22-52.9,81.78-90.19,42.12-80.28,40.24-177.25,26.77-264.5C3518.24,2364.28,3473.92,2245,3423,2131.3c-63.21-141.2-139.68-276.37-222.52-406.9-91.1-143.53-190.59-281.74-296.33-414.83-106.48-134-219.44-263-339.32-385.18-108.92-111-223.64-216.92-346.79-312-100.28-77.46-207.17-149.93-323.8-200.55-82-35.59-176.29-64.2-266.3-46.82C1592.37,371.85,1558.64,386.67,1530.17,409.25ZM2000,3067.12c-73.71,0-148.13-9.82-218.17-33.34-43.83-14.72-90-34.74-124.21-66.83-8.67-8.15-19.45-18.95-21.92-31.15-3.28-16.24,13-25.56,24-34.91,51.5-44,114.47-72.38,179.93-88.46,89.5-22,186.43-24.16,277.28-8.95,64.35,10.77,127.71,31.76,182.82,67.22a373.23,373.23,0,0,1,38.31,28.22c8,6.72,22.3,15.49,26,25.86,3.24,9.14-2.07,18.72-7.17,26.06-25.57,36.8-75.27,58.9-115.41,74.53C2164.92,3055.16,2081.78,3067.12,2000,3067.12Zm633.46-468.51c0,114.83-108.41,170.48-206.69,192.18-105.13,23.21-236.33,27.65-332.12-27.33-44.21-25.38-75.74-67.27-76.36-119.58-.61-51.78,33.68-87.63,74.36-114.54,34.33-22.71,80.38-39.77,105.41-73.89,13.77-18.77,14.39-43.52,8-65.44-8-27.65-31.92-33.53-58.16-29.53-33.71,5.13-63.86,23.73-96.18,33.67-37.7,11.59-74.72,10.06-111.89-2.76-40.7-14-133.36-67.63-147.43,5.5-9.56,49.68,20.78,75.13,59.69,99,39.46,24.16,85.3,45.62,111.59,85.49,27.2,41.28,22.34,97.35-6.11,136.75-33.5,46.41-92.36,67.84-146.46,78.23C1708.9,2816,1590,2807.14,1493.75,2765.9c-45.53-19.5-89-49.68-111.28-95.29-29.4-60.22-14.63-135.55,1.59-197.42,16.58-63.25,39.51-124.4,32.3-190.94-6.06-56-29.64-107.7-58-155.69-62.42-105.66-143.91-200.76-170.1-323.88-24.15-113.57-4.81-245.47,49-348.22,56-106.92,155.71-177.27,273.37-201.23,125.19-25.51,263.57-11.59,377.27,48,29.83,15.63,59.58,36.78,93.19,43.26,30.91,6,59.2-4.82,86.22-19,38.67-20.24,75.88-41.82,117.48-55.83,66.61-22.44,138.24-29.19,208.21-27.18,127.25,3.65,251.93,49.18,331.54,152.24,69.57,90,96.71,207.11,96.45,319.25-.31,133.65-68,242-139.33,349.58-31,46.74-62.08,94.53-81.22,147.59-20.82,57.73-22.73,116.75-8.33,176.27C2609.25,2458.12,2633.46,2524.77,2633.46,2598.61Z"/><path class="cls-4" d="M2736,588.49c-107.9-49.26-239.81-28.61-350.65-1.74-166.44,40.35-325.6,110.33-477.92,187.48-181.9,92.12-356.58,198.5-525.08,313.18-170.45,116-335.05,241.06-491.12,375.85-133.93,115.68-263.47,238.62-376.07,375.46C471.41,1891.93,430,1947.56,395.3,2007.2c-21.7,37.35-43.34,76.32-47.05,120.13-6.95,82,37.42,160.72,84.46,224.31,71,95.89,162.25,176.48,255.6,249.88,119.46,93.92,247.34,177,378.26,254,146.77,86.28,298.16,164.68,452.43,236.64,156.92,73.21,317,139.79,479.94,198.49,149.1,53.71,300.78,101.19,455.16,137.28,125.66,29.37,254.41,52.59,383.73,55.46,88.05,2,186.21-3.35,264.5-48.23,79.44-45.53,103.13-136.27,124-219.83,37.6-150.91,50.29-308.18,56.08-463.18,7.19-192.81.93-386.15-14.21-578.45-15.87-201.56-41.76-402.53-79.64-601.16-34.33-180-78-359.41-141.2-531.65C3000.36,913.05,2942.64,780.71,2851,678,2818.55,641.69,2780.63,608.85,2736,588.49ZM2000,3067.12c-73.71,0-148.13-9.82-218.17-33.34-43.83-14.72-90-34.74-124.21-66.83-8.67-8.15-19.45-18.95-21.92-31.15-3.28-16.24,13-25.56,24-34.91,51.5-44,114.47-72.38,179.93-88.46,89.5-22,186.43-24.16,277.28-8.95,64.35,10.77,127.71,31.76,182.82,67.22a373.23,373.23,0,0,1,38.31,28.22c8,6.72,22.3,15.49,26,25.86,3.24,9.14-2.07,18.72-7.17,26.06-25.57,36.8-75.27,58.9-115.41,74.53C2164.92,3055.16,2081.78,3067.12,2000,3067.12Zm633.46-468.51c0,114.83-108.41,170.48-206.69,192.18-105.13,23.21-236.33,27.65-332.12-27.33-44.21-25.38-75.74-67.27-76.36-119.58-.61-51.78,33.68-87.63,74.36-114.54,34.33-22.71,80.38-39.77,105.41-73.89,13.77-18.77,14.39-43.52,8-65.44-8-27.65-31.92-33.53-58.16-29.53-33.71,5.13-63.86,23.73-96.18,33.67-37.7,11.59-74.72,10.06-111.89-2.76-40.7-14-133.36-67.63-147.43,5.5-9.56,49.68,20.78,75.13,59.69,99,39.46,24.16,85.3,45.62,111.59,85.49,27.2,41.28,22.34,97.35-6.11,136.75-33.5,46.41-92.36,67.84-146.46,78.23C1708.9,2816,1590,2807.14,1493.75,2765.9c-45.53-19.5-89-49.68-111.28-95.29-29.4-60.22-14.63-135.55,1.59-197.42,16.58-63.25,39.51-124.4,32.3-190.94-6.06-56-29.64-107.7-58-155.69-62.42-105.66-143.91-200.76-170.1-323.88-24.15-113.57-4.81-245.47,49-348.22,56-106.92,155.71-177.27,273.37-201.23,125.19-25.51,263.57-11.59,377.27,48,29.83,15.63,59.58,36.78,93.19,43.26,30.91,6,59.2-4.82,86.22-19,38.67-20.24,75.88-41.82,117.48-55.83,66.61-22.44,138.24-29.19,208.21-27.18,127.25,3.65,251.93,49.18,331.54,152.24,69.57,90,96.71,207.11,96.45,319.25-.31,133.65-68,242-139.33,349.58-31,46.74-62.08,94.53-81.22,147.59-20.82,57.73-22.73,116.75-8.33,176.27C2609.25,2458.12,2633.46,2524.77,2633.46,2598.61Z"/><path class="cls-5" d="M1687.37,1763.19c-142.94,121.5-375.94-75.14-256.13-177S1824.52,1646.61,1687.37,1763.19Z"/><path class="cls-5" d="M2312.63,1763.19c142.94,121.5,375.93-75.14,256.13-177S2175.47,1646.61,2312.63,1763.19Z"/></g></svg>