<svg xmlns="http://www.w3.org/2000/svg" viewBox="0 0 4000 4000">
    <path fill="#1e1d24" opacity=".8" d="M3905.6 1132.7c-119.9-104.2-271.6-173-417.2-232.8-203-83.4-413.7-147.7-626-202.2a6813.7 6813.7 0 0 0-720.7-143.8c-231.9-33.5-466.2-55.7-700.6-57.5-189-1.4-383 7.8-566.3 57-123.3 33-252.4 87.7-320.4 202-77 129.6-87.5 294.5-87 441.5.9 212 33.4 424 76.7 631.2a6037.4 6037.4 0 0 0 196.2 708.4 6207.3 6207.3 0 0 0 271.7 673.3c87 182.3 183.4 362.5 303 525.6 45.2 61.4 94 121 150.2 172.7 32.5 30 68 52.1 111.5 62.2 99.7 23.1 206.8-10.1 298.2-48.8 135.8-57.5 261-140.1 379-227.8 147.9-109.9 286.7-231.9 419.5-359.4a6615.3 6615.3 0 0 0 419.8-443.4 6726.9 6726.9 0 0 0 379.6-479.9c108-150.6 210-306.2 299-468.9 71.6-130.4 137.3-266.8 178.3-410.3 27.4-96 49-206.7 17-304.3a212.5 212.5 0 0 0-61.5-94.8zm-1906.1 2143c-88.2 0-177.3-11.8-261-40-52.5-17.5-107.8-41.5-148.7-80-10.4-9.7-23.3-22.6-26.2-37.2-4-19.4 15.6-30.6 28.6-41.8 61.7-52.6 137-86.6 215.4-105.8a832.9 832.9 0 0 1 331.8-10.7c77 12.9 152.8 38 218.8 80.4a446.4 446.4 0 0 1 45.8 33.8c9.6 8 26.7 18.5 31 31 4 10.9-2.4 22.3-8.5 31.1-30.6 44-90 70.5-138.1 89.2-91.5 35.7-191 50-288.9 50zM2696 2372c0 83 36.1 160.3 51.6 240.8 13.9 72 19.9 151.9-24.7 214.6-69.2 97.3-210.1 125.2-321.6 133.2-119 8.5-310.1-1.7-367-130.2A143.2 143.2 0 0 1 2061 2672c39.6-41.6 94-63.3 140.3-96 17.6-12.5 35.9-27.4 44.3-48 9.8-23.8 7.4-63-9.3-83.3-21-25.7-63-16-89.7-7-40.3 13.5-77.7 34.7-120.4 40.8-46 6.6-88.7-6.6-130.8-24-33-13.5-72.5-33.4-109.2-24-33 8.4-39.6 47.5-37.3 77 1.6 21.7 13.6 38.7 29.2 53 40.5 36.7 94 56.3 136.7 90.3 46.8 37.3 72.1 88.9 59.6 149.1-30.1 145.8-230.3 166.4-349.5 162.1-111.4-4-246.1-26.8-327.7-109.7-119.3-121.3-16.4-296.9 2.7-435.9 20-144.8-65.6-265.4-141.4-379.8-40.1-60.7-79-122.8-105.3-190.9a557.3 557.3 0 0 1-35-233.7c7.2-132.9 48.2-268.8 140-368.2 109.8-118.6 270.9-156.8 427.6-151.4 78.4 2.7 156.7 15.7 229.4 46.1 42.8 18 81.4 43.6 123.5 62.8 34.5 15.6 69.3 19.7 105.4 6.7 40.5-14.5 76.6-40.1 115.4-58.5 142.2-67.4 322.3-77.2 472.6-32.9 136.4 40.3 242.8 137.3 298.5 267.8s70.4 290.6 27.6 426.7c-43.9 139.3-143.8 247.2-210.7 374.6-30.3 57.8-51.4 120.5-51.4 186.3z"/>
    <path fill="#1e1d24" opacity=".7" d="M1437.3 95c-125.6 99.6-221.7 237.6-307.7 371-120.1 186.1-222.7 383.5-315.8 584.3a6811.4 6811.4 0 0 0-273.4 685c-75 222.3-139.3 448.8-183.2 679.3-35.2 185.3-61 377.8-43.8 566.6 11.6 127.7 45.5 260.7 148.4 345.3 116.5 95.8 275.8 135 421 160.4 208 36.5 421.4 42.8 632.2 37.9 242.2-5.7 484-28.4 723.8-63a6204 6204 0 0 0 705.6-142.3c194-51.6 387.6-112.8 569-199.4 68-32.4 135-68.8 196-113.2 40.3-29.5 74.4-63.4 97.8-108 50.4-96 48.1-212 32-316.5-22.8-147.8-75.9-290.7-136.8-426.7-75.6-169-167.1-330.7-266.3-486.9a5762.7 5762.7 0 0 0-354.6-496.4 5884.7 5884.7 0 0 0-406-461c-130.4-132.8-267.7-259.6-415-373.4-120-92.7-248-179.4-387.5-240-98.2-42.6-211-76.8-318.7-56-42.6 8.3-83 26-117 53zm562.2 3180.7c-88.2 0-177.3-11.8-261-40-52.5-17.5-107.8-41.5-148.7-80-10.4-9.7-23.3-22.6-26.2-37.2-4-19.4 15.6-30.6 28.6-41.8 61.7-52.7 137-86.6 215.4-105.8a832.9 832.9 0 0 1 331.8-10.8c77 13 152.8 38 218.8 80.5a446.4 446.4 0 0 1 45.8 33.8c9.6 8 26.7 18.5 31 31 4 10.8-2.4 22.3-8.5 31-30.6 44-90 70.6-138.1 89.3-91.5 35.7-191 50-288.9 50zm758-560.7c0 137.4-129.7 204-247.3 230-125.8 27.8-282.8 33-397.4-32.7-53-30.4-90.7-80.5-91.4-143.1-.7-62 40.3-104.9 89-137 41-27.2 96.2-47.7 126.1-88.5 16.5-22.5 17.3-52 9.6-78.3-9.6-33.1-38.2-40.1-69.6-35.4-40.3 6.2-76.4 28.4-115 40.3a210.4 210.4 0 0 1-134-3.3c-48.7-16.8-159.6-80.9-176.4 6.6-11.4 59.5 24.9 90 71.4 118.4 47.3 29 102.1 54.6 133.6 102.3 32.5 49.4 26.7 116.5-7.3 163.7-40.1 55.5-110.6 81.2-175.3 93.6-122.3 23.5-264.6 13-379.8-36.4-54.5-23.3-106.5-59.4-133.2-114-35.2-72-17.5-162.2 2-236.2 19.8-75.7 47.2-149 38.6-228.5-7.3-67-35.5-129-69.4-186.4-74.7-126.4-172.2-240.2-203.6-387.5-28.9-136-5.7-293.8 58.7-416.8 67-127.9 186.3-212 327.1-240.8 149.8-30.5 315.4-13.8 451.5 57.5 35.7 18.7 71.3 44 111.5 51.7 37 7.2 70.9-5.7 103.2-22.7 46.3-24.2 90.8-50 140.6-66.8 79.7-26.8 165.4-35 249.2-32.5 152.2 4.4 301.4 58.9 396.7 182.2 83.3 107.7 115.7 247.8 115.4 382-.3 160-81.4 289.7-166.7 418.4-37.1 55.9-74.3 113-97.2 176.6-25 69-27.2 139.7-10 211 20.5 84.5 49.5 164.2 49.5 252.6z"/>
    <path fill="#1e1d24" opacity=".6" d="M2880.3 309.5c-129.1-59-287-34.2-419.6-2-199.2 48.2-389.7 132-572 224.3C1671.2 642 1462 769.3 1260.5 906.6a6446.2 6446.2 0 0 0-587.7 449.7c-160.3 138.5-315.3 285.6-450 449.3-52.4 63.7-102 130.3-143.5 201.7-26 44.7-51.9 91.3-56.3 143.7-8.3 98.1 44.7 192.3 101 268.4 85 114.8 194.2 211.2 306 299 143 112.4 296 211.9 452.6 304a6439.5 6439.5 0 0 0 541.4 283.2 6859 6859 0 0 0 574.3 237.5c178.5 64.3 360 121.1 544.7 164.3 150.4 35.2 304.5 63 459.2 66.4 105.4 2.3 222.9-4 316.6-57.7 95-54.5 123.4-163.1 148.3-263.1 45-180.6 60.2-368.8 67.1-554.3 8.6-230.7 1.1-462-17-692.2-19-241.2-50-481.7-95.3-719.4-41-215.5-93.3-430.1-169-636.2-56.2-153-125.2-311.4-235-434.3-38.7-43.4-84.1-82.7-137.5-107zm-880.8 2966.2c-88.2 0-177.3-11.8-261-40-52.5-17.5-107.8-41.5-148.7-80-10.4-9.7-23.3-22.6-26.2-37.2-4-19.4 15.6-30.6 28.6-41.8 61.7-52.7 137-86.6 215.4-105.8a832.9 832.9 0 0 1 331.8-10.8c77 13 152.8 38 218.8 80.5a446.4 446.4 0 0 1 45.8 33.8c9.6 8 26.7 18.5 31 31 4 10.8-2.4 22.3-8.5 31-30.6 44-90 70.6-138.1 89.3-91.5 35.7-191 50-288.9 50zm758-560.7c0 137.4-129.7 204-247.3 230-125.8 27.8-282.8 33-397.4-32.7-53-30.4-90.7-80.5-91.4-143.1-.7-62 40.3-104.9 89-137 41-27.2 96.2-47.7 126.1-88.5 16.5-22.5 17.3-52 9.6-78.3-9.6-33.1-38.2-40.1-69.6-35.4-40.3 6.2-76.4 28.4-115 40.3a210.4 210.4 0 0 1-134-3.3c-48.7-16.8-159.6-80.9-176.4 6.6-11.4 59.5 24.9 90 71.4 118.4 47.3 29 102.1 54.6 133.6 102.3 32.5 49.4 26.7 116.5-7.3 163.7-40.1 55.5-110.6 81.2-175.3 93.6-122.3 23.5-264.6 13-379.8-36.4-54.5-23.3-106.5-59.4-133.2-114-35.2-72-17.5-162.2 2-236.2 19.8-75.7 47.2-149 38.6-228.5-7.3-67-35.5-129-69.4-186.4-74.7-126.4-172.2-240.2-203.6-387.5-28.9-136-5.7-293.8 58.7-416.8 67-127.9 186.3-212 327.1-240.8 149.8-30.5 315.4-13.8 451.5 57.5 35.7 18.7 71.3 44 111.5 51.7 37 7.2 70.9-5.7 103.2-22.7 46.3-24.2 90.8-50 140.6-66.8 79.7-26.8 165.4-35 249.2-32.5 152.2 4.4 301.4 58.9 396.7 182.2 83.3 107.7 115.7 247.8 115.4 382-.3 160-81.4 289.7-166.7 418.4-37.1 55.9-74.3 113-97.2 176.6-25 69-27.2 139.7-10 211 20.5 84.5 49.5 164.2 49.5 252.6z"/>
    <path fill="#1e1d24" d="M1625.4 1715.3c-171 145.4-449.9-90-306.5-211.8s470.6 72.3 306.5 211.8zM2373.6 1715.3c171 145.4 449.9-90 306.5-211.8s-470.6 72.3-306.5 211.8z"/>
</svg>
